# xmcd
#
# Track frame offsets:
#	150
#	19171
#	31262
#	50968
#	67623
#	82594
#	94032
#	112127
#	130389
#	150774
#	168769
#
# Disc length: 2468 seconds
#
# Revision: 0
# Processed by: cddbd v1.5.2PL0 Copyright (c) Steve Scherf et al.
# Submitted via: dBpowerAMP V4.0
#
DISCID=7909a20b
DTITLE=Ruth and Ruhan - Volta pra mim
DYEAR=1900
DGENRE=Sertaneja
TTITLE0=01 - Volta pra mim
TTITLE1=02 - Amassa amassa no salão
TTITLE2=03 - Dúvidas
TTITLE3=04 - Se não me quer mais
TTITLE4=05 - Carne com quiabo
TTITLE5=06 - Baile do Niquinho
TTITLE6=07 - Só lembranças
TTITLE7=08 - Dor de amor
TTITLE8=09 - Não da pra não parar
TTITLE9=10 - Você não soube me amar
TTITLE10=11 - Vou te procurar
EXTD=
EXTT0=
EXTT1=
EXTT2=
EXTT3=
EXTT4=
EXTT5=
EXTT6=
EXTT7=
EXTT8=
EXTT9=
EXTT10=
PLAYORDER=
